<mxfile host="app.diagrams.net" agent="Mozilla/5.0 (Windows NT 10.0; Win64; x64) AppleWebKit/537.36 (KHTML, like Gecko) Chrome/131.0.0.0 Safari/537.36" version="24.8.6">
  <diagram name="Страница — 1" id="QHzrBLedhrC0Ef9zYA9B">
    <mxGraphModel dx="913" dy="461" grid="1" gridSize="10" guides="1" tooltips="1" connect="1" arrows="1" fold="1" page="1" pageScale="1" pageWidth="2339" pageHeight="3300" math="0" shadow="0">
      <root>
        <mxCell id="0" />
        <mxCell id="1" parent="0" />
        <mxCell id="n19wgvd8ab0hIONpTGAS-3" style="edgeStyle=orthogonalEdgeStyle;rounded=0;orthogonalLoop=1;jettySize=auto;html=1;" edge="1" parent="1" source="n19wgvd8ab0hIONpTGAS-1" target="n19wgvd8ab0hIONpTGAS-4">
          <mxGeometry relative="1" as="geometry">
            <mxPoint x="270" y="100" as="targetPoint" />
          </mxGeometry>
        </mxCell>
        <mxCell id="n19wgvd8ab0hIONpTGAS-1" value="Start" style="ellipse;whiteSpace=wrap;html=1;" vertex="1" parent="1">
          <mxGeometry x="240" y="40" width="60" height="30" as="geometry" />
        </mxCell>
        <mxCell id="n19wgvd8ab0hIONpTGAS-5" style="edgeStyle=orthogonalEdgeStyle;rounded=0;orthogonalLoop=1;jettySize=auto;html=1;" edge="1" parent="1" source="n19wgvd8ab0hIONpTGAS-4" target="n19wgvd8ab0hIONpTGAS-6">
          <mxGeometry relative="1" as="geometry">
            <mxPoint x="270" y="230" as="targetPoint" />
          </mxGeometry>
        </mxCell>
        <mxCell id="n19wgvd8ab0hIONpTGAS-4" value="&amp;nbsp; &amp;nbsp; string week_days[7] = {&quot;Monday&quot;, &quot;Tuesday&quot;, &quot;Wednesday&quot;, &quot;Thursday&quot;, &quot;Friday&quot;, &quot;Saturday&quot;, &quot;Sunday&quot;};&amp;nbsp; &amp;nbsp; &amp;nbsp; &amp;nbsp; &amp;nbsp; string start_day;&amp;nbsp;&lt;div&gt;int n;&lt;/div&gt;" style="rounded=0;whiteSpace=wrap;html=1;" vertex="1" parent="1">
          <mxGeometry x="180" y="90" width="180" height="90" as="geometry" />
        </mxCell>
        <mxCell id="n19wgvd8ab0hIONpTGAS-7" style="edgeStyle=orthogonalEdgeStyle;rounded=0;orthogonalLoop=1;jettySize=auto;html=1;" edge="1" parent="1" source="n19wgvd8ab0hIONpTGAS-6" target="n19wgvd8ab0hIONpTGAS-8">
          <mxGeometry relative="1" as="geometry">
            <mxPoint x="270" y="310" as="targetPoint" />
          </mxGeometry>
        </mxCell>
        <mxCell id="n19wgvd8ab0hIONpTGAS-6" value="cin &amp;gt;&amp;gt; start_day &amp;gt;&amp;gt; n" style="shape=parallelogram;perimeter=parallelogramPerimeter;whiteSpace=wrap;html=1;fixedSize=1;" vertex="1" parent="1">
          <mxGeometry x="195" y="200" width="150" height="60" as="geometry" />
        </mxCell>
        <mxCell id="n19wgvd8ab0hIONpTGAS-9" style="edgeStyle=orthogonalEdgeStyle;rounded=0;orthogonalLoop=1;jettySize=auto;html=1;" edge="1" parent="1" source="n19wgvd8ab0hIONpTGAS-8" target="n19wgvd8ab0hIONpTGAS-10">
          <mxGeometry relative="1" as="geometry">
            <mxPoint x="270" y="370" as="targetPoint" />
          </mxGeometry>
        </mxCell>
        <mxCell id="n19wgvd8ab0hIONpTGAS-8" value="int start_index = 0" style="rounded=0;whiteSpace=wrap;html=1;" vertex="1" parent="1">
          <mxGeometry x="210" y="280" width="120" height="30" as="geometry" />
        </mxCell>
        <mxCell id="n19wgvd8ab0hIONpTGAS-11" style="edgeStyle=orthogonalEdgeStyle;rounded=0;orthogonalLoop=1;jettySize=auto;html=1;" edge="1" parent="1" source="n19wgvd8ab0hIONpTGAS-10" target="n19wgvd8ab0hIONpTGAS-12">
          <mxGeometry relative="1" as="geometry">
            <mxPoint x="270" y="380" as="targetPoint" />
          </mxGeometry>
        </mxCell>
        <mxCell id="n19wgvd8ab0hIONpTGAS-10" value="int i = 0" style="rounded=0;whiteSpace=wrap;html=1;" vertex="1" parent="1">
          <mxGeometry x="230" y="330" width="80" height="20" as="geometry" />
        </mxCell>
        <mxCell id="n19wgvd8ab0hIONpTGAS-14" style="edgeStyle=orthogonalEdgeStyle;rounded=0;orthogonalLoop=1;jettySize=auto;html=1;entryX=0.5;entryY=0;entryDx=0;entryDy=0;exitX=0;exitY=0.5;exitDx=0;exitDy=0;" edge="1" parent="1" source="n19wgvd8ab0hIONpTGAS-12" target="n19wgvd8ab0hIONpTGAS-15">
          <mxGeometry relative="1" as="geometry">
            <mxPoint x="200" y="420" as="targetPoint" />
          </mxGeometry>
        </mxCell>
        <mxCell id="n19wgvd8ab0hIONpTGAS-27" value="True" style="edgeLabel;html=1;align=center;verticalAlign=middle;resizable=0;points=[];" vertex="1" connectable="0" parent="n19wgvd8ab0hIONpTGAS-14">
          <mxGeometry x="-0.4613" y="-2" relative="1" as="geometry">
            <mxPoint as="offset" />
          </mxGeometry>
        </mxCell>
        <mxCell id="n19wgvd8ab0hIONpTGAS-24" style="edgeStyle=orthogonalEdgeStyle;rounded=0;orthogonalLoop=1;jettySize=auto;html=1;" edge="1" parent="1" source="n19wgvd8ab0hIONpTGAS-12" target="n19wgvd8ab0hIONpTGAS-25">
          <mxGeometry relative="1" as="geometry">
            <mxPoint x="340" y="580" as="targetPoint" />
          </mxGeometry>
        </mxCell>
        <mxCell id="n19wgvd8ab0hIONpTGAS-28" value="False" style="edgeLabel;html=1;align=center;verticalAlign=middle;resizable=0;points=[];" vertex="1" connectable="0" parent="n19wgvd8ab0hIONpTGAS-24">
          <mxGeometry x="-0.5816" y="1" relative="1" as="geometry">
            <mxPoint as="offset" />
          </mxGeometry>
        </mxCell>
        <mxCell id="n19wgvd8ab0hIONpTGAS-12" value="i &amp;lt; 7" style="rhombus;whiteSpace=wrap;html=1;" vertex="1" parent="1">
          <mxGeometry x="230" y="370" width="80" height="40" as="geometry" />
        </mxCell>
        <mxCell id="n19wgvd8ab0hIONpTGAS-17" style="edgeStyle=orthogonalEdgeStyle;rounded=0;orthogonalLoop=1;jettySize=auto;html=1;exitX=1;exitY=0.5;exitDx=0;exitDy=0;" edge="1" parent="1" source="n19wgvd8ab0hIONpTGAS-15" target="n19wgvd8ab0hIONpTGAS-18">
          <mxGeometry relative="1" as="geometry">
            <mxPoint x="260" y="480" as="targetPoint" />
          </mxGeometry>
        </mxCell>
        <mxCell id="n19wgvd8ab0hIONpTGAS-29" value="True" style="edgeLabel;html=1;align=center;verticalAlign=middle;resizable=0;points=[];" vertex="1" connectable="0" parent="n19wgvd8ab0hIONpTGAS-17">
          <mxGeometry x="-0.6978" y="1" relative="1" as="geometry">
            <mxPoint x="13" y="1" as="offset" />
          </mxGeometry>
        </mxCell>
        <mxCell id="n19wgvd8ab0hIONpTGAS-19" style="edgeStyle=orthogonalEdgeStyle;rounded=0;orthogonalLoop=1;jettySize=auto;html=1;" edge="1" parent="1" source="n19wgvd8ab0hIONpTGAS-15">
          <mxGeometry relative="1" as="geometry">
            <mxPoint x="90" y="460" as="targetPoint" />
          </mxGeometry>
        </mxCell>
        <mxCell id="n19wgvd8ab0hIONpTGAS-30" value="False" style="edgeLabel;html=1;align=center;verticalAlign=middle;resizable=0;points=[];" vertex="1" connectable="0" parent="n19wgvd8ab0hIONpTGAS-19">
          <mxGeometry x="-0.2957" y="-2" relative="1" as="geometry">
            <mxPoint x="-4" y="2" as="offset" />
          </mxGeometry>
        </mxCell>
        <mxCell id="n19wgvd8ab0hIONpTGAS-15" value="week_days[i] == start_day" style="rhombus;whiteSpace=wrap;html=1;" vertex="1" parent="1">
          <mxGeometry x="110" y="410" width="130" height="50" as="geometry" />
        </mxCell>
        <mxCell id="n19wgvd8ab0hIONpTGAS-20" style="edgeStyle=orthogonalEdgeStyle;rounded=0;orthogonalLoop=1;jettySize=auto;html=1;" edge="1" parent="1" source="n19wgvd8ab0hIONpTGAS-18" target="n19wgvd8ab0hIONpTGAS-21">
          <mxGeometry relative="1" as="geometry">
            <mxPoint x="260" y="520" as="targetPoint" />
          </mxGeometry>
        </mxCell>
        <mxCell id="n19wgvd8ab0hIONpTGAS-18" value="start_index = i" style="rounded=0;whiteSpace=wrap;html=1;" vertex="1" parent="1">
          <mxGeometry x="220" y="460" width="80" height="30" as="geometry" />
        </mxCell>
        <mxCell id="n19wgvd8ab0hIONpTGAS-26" style="edgeStyle=orthogonalEdgeStyle;rounded=0;orthogonalLoop=1;jettySize=auto;html=1;entryX=0.5;entryY=0;entryDx=0;entryDy=0;" edge="1" parent="1" source="n19wgvd8ab0hIONpTGAS-21" target="n19wgvd8ab0hIONpTGAS-25">
          <mxGeometry relative="1" as="geometry" />
        </mxCell>
        <mxCell id="n19wgvd8ab0hIONpTGAS-21" value="break" style="rounded=0;whiteSpace=wrap;html=1;" vertex="1" parent="1">
          <mxGeometry x="230" y="510" width="60" height="20" as="geometry" />
        </mxCell>
        <mxCell id="n19wgvd8ab0hIONpTGAS-23" style="edgeStyle=orthogonalEdgeStyle;rounded=0;orthogonalLoop=1;jettySize=auto;html=1;exitX=0;exitY=0.5;exitDx=0;exitDy=0;" edge="1" parent="1" source="n19wgvd8ab0hIONpTGAS-22">
          <mxGeometry relative="1" as="geometry">
            <mxPoint x="270" y="360" as="targetPoint" />
            <Array as="points">
              <mxPoint x="40" y="475" />
              <mxPoint x="40" y="360" />
              <mxPoint x="230" y="360" />
            </Array>
          </mxGeometry>
        </mxCell>
        <mxCell id="n19wgvd8ab0hIONpTGAS-22" value="i++" style="rounded=0;whiteSpace=wrap;html=1;" vertex="1" parent="1">
          <mxGeometry x="60" y="460" width="60" height="30" as="geometry" />
        </mxCell>
        <mxCell id="n19wgvd8ab0hIONpTGAS-31" style="edgeStyle=orthogonalEdgeStyle;rounded=0;orthogonalLoop=1;jettySize=auto;html=1;entryX=0.5;entryY=0;entryDx=0;entryDy=0;exitX=1;exitY=0.5;exitDx=0;exitDy=0;" edge="1" parent="1" source="n19wgvd8ab0hIONpTGAS-25" target="n19wgvd8ab0hIONpTGAS-32">
          <mxGeometry relative="1" as="geometry">
            <mxPoint x="415" y="700" as="targetPoint" />
            <mxPoint x="540" y="620" as="sourcePoint" />
            <Array as="points">
              <mxPoint x="580" y="600" />
              <mxPoint x="580" y="60" />
              <mxPoint x="686" y="60" />
            </Array>
          </mxGeometry>
        </mxCell>
        <mxCell id="n19wgvd8ab0hIONpTGAS-25" value="&lt;div&gt;int base_count = n /7;&lt;/div&gt;&lt;div&gt;int remainder = n % 7;&lt;/div&gt;&lt;div&gt;&lt;span style=&quot;background-color: initial;&quot;&gt;int days_count[7] = {base_count, base_count, base_count, base_count, base_count, base_count, base_count};&lt;/span&gt;&lt;/div&gt;" style="rounded=0;whiteSpace=wrap;html=1;" vertex="1" parent="1">
          <mxGeometry x="320" y="560" width="250" height="80" as="geometry" />
        </mxCell>
        <mxCell id="n19wgvd8ab0hIONpTGAS-36" style="edgeStyle=orthogonalEdgeStyle;rounded=0;orthogonalLoop=1;jettySize=auto;html=1;" edge="1" parent="1" source="n19wgvd8ab0hIONpTGAS-32" target="n19wgvd8ab0hIONpTGAS-37">
          <mxGeometry relative="1" as="geometry">
            <mxPoint x="686.25" y="120" as="targetPoint" />
          </mxGeometry>
        </mxCell>
        <mxCell id="n19wgvd8ab0hIONpTGAS-32" value="int i = 0" style="rounded=0;whiteSpace=wrap;html=1;" vertex="1" parent="1">
          <mxGeometry x="648.75" y="80" width="75" height="20" as="geometry" />
        </mxCell>
        <mxCell id="n19wgvd8ab0hIONpTGAS-41" style="edgeStyle=orthogonalEdgeStyle;rounded=0;orthogonalLoop=1;jettySize=auto;html=1;entryX=0.5;entryY=0;entryDx=0;entryDy=0;" edge="1" parent="1" source="n19wgvd8ab0hIONpTGAS-37" target="n19wgvd8ab0hIONpTGAS-40">
          <mxGeometry relative="1" as="geometry">
            <Array as="points">
              <mxPoint x="785" y="135" />
            </Array>
          </mxGeometry>
        </mxCell>
        <mxCell id="n19wgvd8ab0hIONpTGAS-45" value="True" style="edgeLabel;html=1;align=center;verticalAlign=middle;resizable=0;points=[];" vertex="1" connectable="0" parent="n19wgvd8ab0hIONpTGAS-41">
          <mxGeometry x="-0.4245" relative="1" as="geometry">
            <mxPoint as="offset" />
          </mxGeometry>
        </mxCell>
        <mxCell id="n19wgvd8ab0hIONpTGAS-46" style="edgeStyle=orthogonalEdgeStyle;rounded=0;orthogonalLoop=1;jettySize=auto;html=1;entryX=0.5;entryY=0;entryDx=0;entryDy=0;exitX=0;exitY=0.5;exitDx=0;exitDy=0;" edge="1" parent="1" source="n19wgvd8ab0hIONpTGAS-37" target="n19wgvd8ab0hIONpTGAS-49">
          <mxGeometry relative="1" as="geometry">
            <mxPoint x="610" y="290" as="targetPoint" />
            <Array as="points">
              <mxPoint x="620" y="135" />
              <mxPoint x="620" y="220" />
              <mxPoint x="676" y="220" />
            </Array>
          </mxGeometry>
        </mxCell>
        <mxCell id="n19wgvd8ab0hIONpTGAS-47" value="False" style="edgeLabel;html=1;align=center;verticalAlign=middle;resizable=0;points=[];" vertex="1" connectable="0" parent="n19wgvd8ab0hIONpTGAS-46">
          <mxGeometry x="-0.1854" y="3" relative="1" as="geometry">
            <mxPoint as="offset" />
          </mxGeometry>
        </mxCell>
        <mxCell id="n19wgvd8ab0hIONpTGAS-37" value="i &amp;lt; remainder" style="rhombus;whiteSpace=wrap;html=1;" vertex="1" parent="1">
          <mxGeometry x="640" y="120" width="92.5" height="30" as="geometry" />
        </mxCell>
        <mxCell id="n19wgvd8ab0hIONpTGAS-42" style="edgeStyle=orthogonalEdgeStyle;rounded=0;orthogonalLoop=1;jettySize=auto;html=1;" edge="1" parent="1" source="n19wgvd8ab0hIONpTGAS-40">
          <mxGeometry relative="1" as="geometry">
            <mxPoint x="785" y="230" as="targetPoint" />
          </mxGeometry>
        </mxCell>
        <mxCell id="n19wgvd8ab0hIONpTGAS-40" value="&lt;p data-pm-slice=&quot;0 0 []&quot;&gt;days_count[(start_index + i) % 7]++&lt;/p&gt;" style="rounded=0;whiteSpace=wrap;html=1;" vertex="1" parent="1">
          <mxGeometry x="720" y="160" width="130" height="40" as="geometry" />
        </mxCell>
        <mxCell id="n19wgvd8ab0hIONpTGAS-44" style="edgeStyle=orthogonalEdgeStyle;rounded=0;orthogonalLoop=1;jettySize=auto;html=1;" edge="1" parent="1" source="n19wgvd8ab0hIONpTGAS-43">
          <mxGeometry relative="1" as="geometry">
            <mxPoint x="686" y="110" as="targetPoint" />
            <Array as="points">
              <mxPoint x="890" y="245" />
              <mxPoint x="890" y="110" />
              <mxPoint x="724" y="110" />
            </Array>
          </mxGeometry>
        </mxCell>
        <mxCell id="n19wgvd8ab0hIONpTGAS-43" value="i++" style="rounded=0;whiteSpace=wrap;html=1;" vertex="1" parent="1">
          <mxGeometry x="760" y="230" width="60" height="30" as="geometry" />
        </mxCell>
        <mxCell id="n19wgvd8ab0hIONpTGAS-48" style="edgeStyle=orthogonalEdgeStyle;rounded=0;orthogonalLoop=1;jettySize=auto;html=1;" edge="1" parent="1" source="n19wgvd8ab0hIONpTGAS-49" target="n19wgvd8ab0hIONpTGAS-53">
          <mxGeometry relative="1" as="geometry">
            <mxPoint x="676.25" y="310" as="targetPoint" />
          </mxGeometry>
        </mxCell>
        <mxCell id="n19wgvd8ab0hIONpTGAS-49" value="int i = 0" style="rounded=0;whiteSpace=wrap;html=1;" vertex="1" parent="1">
          <mxGeometry x="638.75" y="270" width="75" height="20" as="geometry" />
        </mxCell>
        <mxCell id="n19wgvd8ab0hIONpTGAS-50" style="edgeStyle=orthogonalEdgeStyle;rounded=0;orthogonalLoop=1;jettySize=auto;html=1;entryX=0.484;entryY=-0.003;entryDx=0;entryDy=0;entryPerimeter=0;" edge="1" parent="1" source="n19wgvd8ab0hIONpTGAS-53" target="n19wgvd8ab0hIONpTGAS-58">
          <mxGeometry relative="1" as="geometry">
            <Array as="points">
              <mxPoint x="775.35" y="325" />
            </Array>
            <mxPoint x="775.0000000000001" y="350" as="targetPoint" />
          </mxGeometry>
        </mxCell>
        <mxCell id="n19wgvd8ab0hIONpTGAS-51" value="True" style="edgeLabel;html=1;align=center;verticalAlign=middle;resizable=0;points=[];" vertex="1" connectable="0" parent="n19wgvd8ab0hIONpTGAS-50">
          <mxGeometry x="-0.4245" relative="1" as="geometry">
            <mxPoint as="offset" />
          </mxGeometry>
        </mxCell>
        <mxCell id="n19wgvd8ab0hIONpTGAS-59" style="edgeStyle=orthogonalEdgeStyle;rounded=0;orthogonalLoop=1;jettySize=auto;html=1;exitX=0;exitY=0.5;exitDx=0;exitDy=0;" edge="1" parent="1" source="n19wgvd8ab0hIONpTGAS-53" target="n19wgvd8ab0hIONpTGAS-60">
          <mxGeometry relative="1" as="geometry">
            <mxPoint x="610" y="450" as="targetPoint" />
            <Array as="points">
              <mxPoint x="620" y="325" />
              <mxPoint x="620" y="360" />
              <mxPoint x="640" y="360" />
            </Array>
          </mxGeometry>
        </mxCell>
        <mxCell id="n19wgvd8ab0hIONpTGAS-61" value="False" style="edgeLabel;html=1;align=center;verticalAlign=middle;resizable=0;points=[];" vertex="1" connectable="0" parent="n19wgvd8ab0hIONpTGAS-59">
          <mxGeometry x="-0.2262" y="-2" relative="1" as="geometry">
            <mxPoint y="1" as="offset" />
          </mxGeometry>
        </mxCell>
        <mxCell id="n19wgvd8ab0hIONpTGAS-53" value="i&amp;lt;7" style="rhombus;whiteSpace=wrap;html=1;" vertex="1" parent="1">
          <mxGeometry x="630" y="310" width="92.5" height="30" as="geometry" />
        </mxCell>
        <mxCell id="n19wgvd8ab0hIONpTGAS-54" style="edgeStyle=orthogonalEdgeStyle;rounded=0;orthogonalLoop=1;jettySize=auto;html=1;" edge="1" parent="1">
          <mxGeometry relative="1" as="geometry">
            <mxPoint x="775" y="420" as="targetPoint" />
            <mxPoint x="775.0500000000001" y="390" as="sourcePoint" />
          </mxGeometry>
        </mxCell>
        <mxCell id="n19wgvd8ab0hIONpTGAS-56" style="edgeStyle=orthogonalEdgeStyle;rounded=0;orthogonalLoop=1;jettySize=auto;html=1;" edge="1" parent="1" source="n19wgvd8ab0hIONpTGAS-57">
          <mxGeometry relative="1" as="geometry">
            <mxPoint x="676" y="300" as="targetPoint" />
            <Array as="points">
              <mxPoint x="880" y="435" />
              <mxPoint x="880" y="300" />
              <mxPoint x="714" y="300" />
            </Array>
          </mxGeometry>
        </mxCell>
        <mxCell id="n19wgvd8ab0hIONpTGAS-57" value="i++" style="rounded=0;whiteSpace=wrap;html=1;" vertex="1" parent="1">
          <mxGeometry x="750" y="420" width="60" height="30" as="geometry" />
        </mxCell>
        <mxCell id="n19wgvd8ab0hIONpTGAS-58" value="cout &amp;lt;&amp;lt; days_count[i] &amp;lt;&amp;lt; &quot; &quot;" style="shape=parallelogram;perimeter=parallelogramPerimeter;whiteSpace=wrap;html=1;fixedSize=1;" vertex="1" parent="1">
          <mxGeometry x="712.1" y="350" width="131.25" height="40" as="geometry" />
        </mxCell>
        <mxCell id="n19wgvd8ab0hIONpTGAS-60" value="End" style="ellipse;whiteSpace=wrap;html=1;" vertex="1" parent="1">
          <mxGeometry x="590" y="350" width="60" height="40" as="geometry" />
        </mxCell>
      </root>
    </mxGraphModel>
  </diagram>
</mxfile>
